<?xml version="1.0" encoding="UTF-8" standalone="no"?>
<!DOCTYPE svg PUBLIC "-//W3C//DTD SVG 1.1//EN" "http://www.w3.org/Graphics/SVG/1.1/DTD/svg11.dtd">
<svg width="100%" height="100%" viewBox="0 0 1146 385" version="1.1" xmlns="http://www.w3.org/2000/svg" xmlns:xlink="http://www.w3.org/1999/xlink" xml:space="preserve" xmlns:serif="http://www.serif.com/" style="fill-rule:evenodd;clip-rule:evenodd;stroke-linejoin:round;stroke-miterlimit:2;">
    <g id="Page-1" serif:id="Page 1" transform="matrix(4.166667,0,0,4.166667,0,0)">
        <rect x="0" y="0" width="274.826" height="92.308" style="fill:none;"/>
        <g id="Layer-1" serif:id="Layer 1">
            <g transform="matrix(1,0,0,1,26.6655,13.673)">
                <path d="M0,-4.547L0.617,-5.352C1.112,-5.988 1.605,-6.649 2.49,-6.649C3.171,-6.649 3.562,-6.379 4.075,-5.988C4.138,-5.722 4.198,-5.454 4.198,-5.165C4.198,-4.713 3.953,-4.157 3.603,-3.849C3.232,-3.498 2.409,-3.334 1.914,-3.273C0.68,-3.087 -0.598,-2.943 -1.688,-2.283C-0.885,-1.873 0,-1.605 0.887,-1.482L2.203,-1.295C3.273,-1.152 4.158,-0.452 4.158,0.68C4.158,0.947 4.117,1.194 4.075,1.441C3.664,1.812 3.212,2.101 2.614,2.101C1.647,2.101 1.133,1.545 0.617,0.782C-0.082,-0.163 -0.823,-1.234 -1.873,-1.831L-1.894,-1.543C-1.894,-0.762 -1.523,0.249 -1.215,0.969L-0.782,1.934C-0.598,2.369 -0.473,2.678 -0.473,3.15C-0.473,4.199 -1.151,4.879 -2.059,5.126C-2.943,4.879 -3.663,4.221 -3.663,3.231C-3.663,2.738 -3.521,2.306 -3.336,1.874L-3.026,1.03C-2.695,0.207 -2.367,-0.741 -2.367,-1.626L-2.367,-1.831C-3.438,-1.214 -4.198,-0.102 -4.919,0.886C-5.372,1.545 -5.866,2.101 -6.711,2.101C-7.41,2.101 -7.78,1.833 -8.296,1.441C-8.337,1.153 -8.398,0.865 -8.398,0.577C-8.398,-0.72 -7.308,-1.152 -6.217,-1.295L-5.104,-1.461C-4.22,-1.584 -3.294,-1.831 -2.553,-2.283C-3.521,-2.839 -4.59,-3.045 -5.64,-3.19C-6.978,-3.396 -8.357,-3.561 -8.357,-5.248L-8.296,-6.01C-7.76,-6.401 -7.431,-6.668 -6.731,-6.668C-5.723,-6.668 -5.125,-5.804 -4.61,-5.063C-4.033,-4.239 -3.294,-3.19 -2.367,-2.759L-2.367,-3.211C-2.367,-3.972 -2.82,-5.125 -3.13,-5.846C-3.354,-6.401 -3.726,-7.142 -3.726,-7.78C-3.726,-8.788 -2.964,-9.428 -2.059,-9.673C-1.317,-9.428 -0.494,-8.788 -0.494,-7.923C-0.494,-7.45 -0.68,-6.915 -0.864,-6.483C-1.357,-5.31 -1.913,-4.074 -1.873,-2.759C-1.605,-2.861 -1.461,-2.964 -1.255,-3.149L0,-4.547" style="fill:rgb(245,130,31);fill-rule:nonzero;"/>
            </g>
            <g transform="matrix(1,0,0,1,30.1831,28.9174)">
                <path d="M0,2.9C-0.647,5.347 -2.89,6.421 -5.95,6.421C-9.588,6.421 -11.102,5.007 -11.102,3.456C-11.102,3.267 -11.016,2.885 -10.965,2.668L-9.35,-3.521L-5.61,-3.521L-6.988,1.785C-7.072,2.083 -7.174,2.573 -7.174,2.723C-7.174,3.021 -7.276,4.001 -5.763,4.001C-4.216,4.001 -3.74,2.885 -3.467,1.811L-2.074,-3.521L1.666,-3.521L0,2.9" style="fill:rgb(128,195,65);fill-rule:nonzero;"/>
            </g>
            <g transform="matrix(1,0,0,1,51.4097,35.1085)">
                <path d="M0,-9.712L3.707,-9.712L5.984,-4.406L6.02,-4.406L7.379,-9.712L10.933,-9.712L8.383,0L4.709,0L2.482,-5.441L2.448,-5.441L1.038,0L-2.516,0L0,-9.712Z" style="fill:rgb(128,195,65);fill-rule:nonzero;"/>
            </g>
            <g transform="matrix(1,0,0,1,86.1802,35.1085)">
                <path d="M0,-9.712L3.74,-9.712L1.224,0L-2.517,0L0,-9.712Z" style="fill:rgb(128,195,65);fill-rule:nonzero;"/>
            </g>
            <g transform="matrix(1,0,0,1,118.5894,25.6386)">
                <path d="M0,9.71L-4.201,9.71L-5.237,0L-1.581,0L-1.021,5.686L-0.987,5.686L2.192,0L6.053,0L0,9.71Z" style="fill:rgb(128,195,65);fill-rule:nonzero;"/>
            </g>
            <g transform="matrix(1,0,0,1,86.936,49.3833)">
                <path d="M0,-38.314C-6.468,-38.314 -12.192,-35.09 -15.662,-30.168C-17.86,-27.05 -19.155,-23.25 -19.155,-19.156L-19.155,-19.155C-19.156,-12.446 -24.615,-6.987 -31.324,-6.987C-38.032,-6.987 -43.491,-12.446 -43.491,-19.155C-43.491,-15.059 -44.788,-11.264 -46.984,-8.146C-43.514,-3.224 -37.791,0 -31.324,0C-24.857,0 -19.132,-3.224 -15.662,-8.146C-13.464,-11.264 -12.169,-15.059 -12.169,-19.155C-12.169,-25.87 -6.709,-31.327 0,-31.327C6.709,-31.327 12.168,-25.87 12.168,-19.156L12.168,-19.155L12.169,-19.155C12.169,-23.25 13.464,-27.05 15.662,-30.168C12.192,-35.09 6.466,-38.314 0,-38.314" style="fill:rgb(0,133,74);fill-rule:nonzero;"/>
            </g>
            <g transform="matrix(1,0,0,1,130.4263,62.5175)">
                <path d="M0,-32.289C0,-25.58 -5.457,-20.121 -12.166,-20.121C-18.875,-20.121 -24.333,-25.58 -24.334,-32.289C-24.334,-28.985 -25.179,-25.877 -26.659,-23.163C-27.014,-22.512 -27.403,-21.883 -27.828,-21.28C-28.862,-19.814 -30.1,-18.504 -31.492,-17.379L-31.492,0L-24.625,0L-24.625,-17.764C-21.274,-14.882 -16.922,-13.134 -12.166,-13.134C-1.606,-13.134 6.987,-21.726 6.987,-32.289L0,-32.289" style="fill:rgb(0,133,74);fill-rule:nonzero;"/>
            </g>
            <g transform="matrix(1,0,0,1,118.2603,49.3833)">
                <path d="M0,-38.314C-6.468,-38.314 -12.192,-35.09 -15.662,-30.168C-17.86,-27.05 -19.155,-23.25 -19.155,-19.156L-19.155,-19.155L-19.156,-19.155C-19.156,-12.446 -24.615,-6.987 -31.324,-6.987C-38.033,-6.987 -43.491,-12.446 -43.493,-19.155C-43.493,-15.059 -44.788,-11.264 -46.986,-8.146C-43.517,-3.224 -37.792,0 -31.324,0C-26.783,0 -22.613,-1.593 -19.326,-4.245C-17.934,-5.37 -16.696,-6.68 -15.662,-8.146C-15.237,-8.749 -14.848,-9.377 -14.493,-10.029C-13.013,-12.743 -12.168,-15.851 -12.168,-19.155C-12.168,-25.87 -6.71,-31.327 0,-31.327C6.709,-31.327 12.166,-25.87 12.166,-19.156L12.166,-19.155L19.153,-19.155C19.153,-29.721 10.56,-38.314 0,-38.314" style="fill:rgb(128,195,65);fill-rule:nonzero;"/>
            </g>
            <g transform="matrix(1,0,0,1,55.6118,49.3833)">
                <path d="M0,-38.314C-6.467,-38.314 -12.189,-35.09 -15.66,-30.168C-17.857,-27.05 -19.155,-23.25 -19.155,-19.156L-19.155,-19.155C-19.155,-12.446 -24.613,-6.987 -31.323,-6.987C-38.031,-6.987 -43.489,-12.446 -43.489,-19.155C-43.489,-23.537 -41.162,-27.387 -37.679,-29.529L-40.977,-35.693C-46.653,-32.364 -50.477,-26.202 -50.477,-19.156L-50.477,-19.155C-50.477,-8.593 -41.884,0 -31.323,0C-24.855,0 -19.131,-3.224 -15.66,-8.146C-13.464,-11.264 -12.167,-15.059 -12.167,-19.155C-12.167,-25.87 -6.708,-31.327 0,-31.327C6.711,-31.327 12.169,-25.87 12.169,-19.156L12.169,-19.155C12.169,-23.25 13.464,-27.05 15.662,-30.168C12.192,-35.09 6.467,-38.314 0,-38.314" style="fill:rgb(128,195,65);fill-rule:nonzero;"/>
            </g>
            <g transform="matrix(1,0,0,1,17.1772,84.4286)">
                <path d="M0,-13.287C0,-14.068 -0.1,-14.656 -0.297,-15.053L2.546,-15.053L2.546,-11.113L4.776,-11.113L4.776,-9.459L2.546,-9.459L2.546,-5.853C2.546,-5.073 2.496,-4.423 2.397,-3.902L0,-3.902L0,-13.287ZM2.639,1.766L-6.431,1.766C-6.592,1.766 -6.731,1.707 -6.849,1.59C-6.966,1.472 -7.025,1.339 -7.025,1.19L-7.025,-2.155C-7.025,-2.948 -7.125,-3.53 -7.322,-3.902L-4.479,-3.902L-4.479,0.112L2.639,0.112L2.639,1.766ZM-4.944,-7.656C-4.609,-8.077 -4.442,-8.579 -4.442,-9.162C-4.442,-9.744 -4.609,-10.246 -4.944,-10.667C-5.278,-11.088 -5.675,-11.299 -6.133,-11.299C-6.616,-11.299 -7.019,-11.091 -7.341,-10.677C-7.664,-10.261 -7.824,-9.757 -7.824,-9.162C-7.824,-8.579 -7.66,-8.077 -7.332,-7.656C-7.003,-7.235 -6.604,-7.024 -6.133,-7.024C-5.675,-7.024 -5.278,-7.235 -4.944,-7.656M-7.453,-13.194L-7.453,-13.585C-7.453,-14.18 -7.533,-14.638 -7.694,-14.96L-4.813,-14.96L-4.813,-13.194L-1.45,-13.194L-1.45,-11.54L-2.844,-11.54C-2.2,-10.834 -1.877,-10.041 -1.877,-9.162C-1.877,-8.133 -2.295,-7.247 -3.132,-6.504C-3.968,-5.761 -4.969,-5.389 -6.133,-5.389C-7.298,-5.389 -8.298,-5.761 -9.134,-6.504C-9.971,-7.247 -10.389,-8.133 -10.389,-9.162C-10.389,-10.041 -10.067,-10.834 -9.422,-11.54L-10.835,-11.54L-10.835,-13.194L-7.453,-13.194Z" style="fill:rgb(35,31,32);fill-rule:nonzero;"/>
            </g>
            <g transform="matrix(1,0,0,1,32.8618,80.9162)">
                <path d="M0,-5.426C0.087,-6.393 0.13,-7.631 0.13,-9.143L-7.285,-9.143L-7.285,-10.797L2.788,-10.797C2.788,-8.53 2.614,-6.739 2.268,-5.426L5.539,-5.426L5.539,-3.772L-0.985,-3.772L-0.985,-0.91L2.565,-0.91L2.565,3.42C2.565,4.201 2.515,4.851 2.416,5.371L0.019,5.371L0.019,0.744L-7.192,0.744L-7.192,-0.91L-3.549,-0.91L-3.549,-3.772L-10.073,-3.772L-10.073,-5.426L0,-5.426Z" style="fill:rgb(35,31,32);fill-rule:nonzero;"/>
            </g>
            <g transform="matrix(1,0,0,1,51.7065,81.4566)">
                <path d="M0,-10.315C0,-11.108 -0.105,-11.697 -0.316,-12.081L2.342,-12.081L2.342,-0.094C2.342,0.687 2.292,1.337 2.193,1.858L0,1.858L0,-10.315ZM-3.327,-6.059L-5.649,-6.059L-5.649,-7.713L-3.327,-7.713L-3.327,-10.315C-3.327,-11.108 -3.432,-11.697 -3.643,-12.081L-0.985,-12.081L-0.985,-0.094C-0.985,0.687 -1.035,1.337 -1.134,1.858L-3.327,1.858L-3.327,-6.059ZM-6.69,-6.45C-5.588,-5.248 -4.627,-4.132 -3.81,-3.105L-6.17,-1.673C-6.814,-2.95 -7.347,-3.965 -7.768,-4.721C-8.66,-3.519 -9.769,-2.442 -11.095,-1.488L-12.489,-2.324C-10.284,-4.145 -8.97,-6.227 -8.549,-8.568L-11.634,-8.568L-11.634,-10.222L-9.626,-10.222L-9.626,-10.798C-9.626,-11.393 -9.708,-11.851 -9.868,-12.173L-7.081,-12.173L-7.081,-10.222L-5.464,-10.222C-5.662,-8.896 -6.071,-7.639 -6.69,-6.45" style="fill:rgb(35,31,32);fill-rule:nonzero;"/>
            </g>
            <g transform="matrix(1,0,0,1,0,63.6336)">
                <path d="M64.734,14.904L62.838,14.904L62.838,16.929L64.734,16.929L64.734,14.904ZM65.496,10.398C65.979,10.081 66.221,9.707 66.221,9.274C66.221,8.84 65.979,8.465 65.496,8.149C65.013,7.833 64.443,7.675 63.786,7.675C63.129,7.675 62.56,7.833 62.076,8.149C61.593,8.465 61.352,8.84 61.352,9.274C61.352,9.707 61.593,10.081 62.076,10.398C62.56,10.713 63.129,10.871 63.786,10.871C64.443,10.871 65.013,10.713 65.496,10.398M68.767,9.274C68.767,10.165 68.28,10.927 67.308,11.559C66.335,12.191 65.161,12.507 63.786,12.507C62.411,12.507 61.237,12.191 60.264,11.559C59.292,10.927 58.806,10.165 58.806,9.274C58.806,8.369 59.292,7.601 60.264,6.969C61.237,6.337 62.411,6.021 63.786,6.021C65.161,6.021 66.335,6.337 67.308,6.969C68.28,7.601 68.767,8.369 68.767,9.274M60.459,16.93L60.459,14.904L55.98,14.904L55.98,13.25L71.592,13.25L71.592,14.904L67.113,14.904L67.113,16.93L68.618,16.93L68.618,20.702C68.618,21.484 68.568,22.134 68.469,22.653L66.072,22.653L66.072,18.584L58.861,18.584L58.861,16.93L60.459,16.93Z" style="fill:rgb(35,31,32);fill-rule:nonzero;"/>
            </g>
            <g transform="matrix(1,0,0,1,80.5122,75.3785)">
                <path d="M0,1.933L0,-4.237C0,-5.018 -0.1,-5.606 -0.297,-6.003L2.341,-6.003L2.341,-1.505L3.605,-1.505L3.605,-4.237C3.605,-5.03 3.5,-5.619 3.29,-6.003L5.947,-6.003L5.947,5.984C5.947,6.765 5.897,7.415 5.798,7.936L3.605,7.936L3.605,0.149L2.341,0.149L2.341,5.984C2.341,6.765 2.292,7.415 2.193,7.936L0,7.936L0,3.475C-0.942,3.71 -1.871,3.829 -2.788,3.829L-6.653,3.829C-6.814,3.829 -6.954,3.77 -7.071,3.652C-7.189,3.535 -7.248,3.395 -7.248,3.234L-7.248,-3.141C-7.248,-3.933 -7.347,-4.516 -7.545,-4.887L-1.766,-4.887L-1.766,-3.234L-4.702,-3.234L-4.702,2.174L-2.583,2.174C-1.642,2.174 -0.781,2.094 0,1.933" style="fill:rgb(35,31,32);fill-rule:nonzero;"/>
            </g>
            <g transform="matrix(1,0,0,1,99.4312,84.4296)">
                <path d="M0,-13.288C0,-14.069 -0.1,-14.657 -0.297,-15.054L2.546,-15.054L2.546,-11.485L4.776,-11.485L4.776,-9.832L2.546,-9.832L2.546,-7.62C2.546,-6.84 2.496,-6.189 2.397,-5.669L0,-5.669L0,-13.288ZM-0.093,-3.049L-7.304,-3.049L-7.304,-4.702L2.453,-4.702L2.453,-0.094C2.453,0.688 2.403,1.338 2.304,1.858L-0.093,1.858L-0.093,-3.049ZM-4.442,-9.534C-4.442,-10.067 -4.609,-10.525 -4.944,-10.909C-5.278,-11.294 -5.675,-11.485 -6.133,-11.485C-6.616,-11.485 -7.019,-11.294 -7.341,-10.909C-7.664,-10.525 -7.824,-10.067 -7.824,-9.534C-7.824,-9.002 -7.66,-8.543 -7.332,-8.159C-7.003,-7.775 -6.604,-7.583 -6.133,-7.583C-5.675,-7.583 -5.278,-7.778 -4.944,-8.168C-4.609,-8.559 -4.442,-9.014 -4.442,-9.534M-7.453,-13.381L-7.453,-13.771C-7.453,-14.366 -7.533,-14.824 -7.694,-15.146L-4.813,-15.146L-4.813,-13.381L-1.45,-13.381L-1.45,-11.727L-2.77,-11.727C-2.175,-11.07 -1.877,-10.34 -1.877,-9.534C-1.877,-8.556 -2.295,-7.713 -3.132,-7.007C-3.968,-6.301 -4.969,-5.947 -6.133,-5.947C-7.298,-5.947 -8.298,-6.301 -9.134,-7.007C-9.971,-7.713 -10.389,-8.556 -10.389,-9.534C-10.389,-10.34 -10.092,-11.07 -9.497,-11.727L-10.835,-11.727L-10.835,-13.381L-7.453,-13.381Z" style="fill:rgb(35,31,32);fill-rule:nonzero;"/>
            </g>
            <g transform="matrix(1,0,0,1,118.3682,81.5301)">
                <path d="M0,-11.411C0,-9.54 -0.078,-7.924 -0.232,-6.56C-0.387,-5.197 -0.57,-4.243 -0.78,-3.698L-2.88,-3.698C-2.732,-4.739 -2.658,-6.759 -2.658,-9.757L-10.909,-9.757L-10.909,-11.411L0,-11.411ZM-3.308,-1.654L2.286,-1.654L2.286,0L-13.325,0L-13.325,-1.654L-9.589,-1.654L-9.589,-4.85C-9.589,-5.445 -9.67,-5.903 -9.831,-6.226L-7.211,-6.226L-7.211,-1.654L-5.687,-1.654L-5.687,-4.85C-5.687,-5.445 -5.768,-5.903 -5.928,-6.226L-3.308,-6.226L-3.308,-1.654Z" style="fill:rgb(35,31,32);fill-rule:nonzero;"/>
            </g>
            <g transform="matrix(1,0,0,1,130.7456,78.9829)">
                <path d="M0,-6.689L5.259,-3.92L3.196,-1.951C1.003,-3.66 -0.434,-4.763 -1.115,-5.258C-2.392,-3.858 -3.996,-2.712 -5.929,-1.82L-7.192,-2.861C-5.681,-3.667 -4.495,-4.611 -3.633,-5.695C-2.772,-6.779 -2.342,-7.786 -2.342,-8.715L-2.397,-9.236L1.003,-9.236C0.892,-8.405 0.557,-7.556 0,-6.689M-2.379,0.893L-2.379,-1.375C-2.379,-1.969 -2.46,-2.427 -2.621,-2.75L0.186,-2.75L0.186,0.893L6.709,0.893L6.709,2.547L-8.902,2.547L-8.902,0.893L-2.379,0.893Z" style="fill:rgb(35,31,32);fill-rule:nonzero;"/>
            </g>
            <g transform="matrix(1,0,0,1,149.4229,81.5486)">
                <path d="M0,-10.407C0,-11.188 -0.1,-11.776 -0.297,-12.173L2.546,-12.173L2.546,-0.186C2.546,0.595 2.496,1.245 2.397,1.766L0,1.766L0,-10.407ZM-4.627,-6.338L-7.75,-6.338L-7.75,-3.811L-4.627,-3.811L-4.627,-6.338ZM-7.75,-7.991L-4.627,-7.991L-4.627,-9.386C-4.627,-10.178 -4.733,-10.766 -4.943,-11.151L-2.1,-11.151L-2.1,-2.156L-9.701,-2.156C-9.85,-2.156 -9.983,-2.215 -10.101,-2.333C-10.219,-2.45 -10.277,-2.584 -10.277,-2.732L-10.277,-9.311C-10.277,-10.116 -10.383,-10.698 -10.593,-11.057L-7.75,-11.057L-7.75,-7.991Z" style="fill:rgb(35,31,32);fill-rule:nonzero;"/>
            </g>
            <g transform="matrix(1,0,0,1,164.4941,81.5486)">
                <path d="M0,-10.407C0,-11.188 -0.099,-11.776 -0.297,-12.173L2.546,-12.173L2.546,-7.676L4.776,-7.676L4.776,-6.021L2.546,-6.021L2.546,-0.186C2.546,0.595 2.497,1.245 2.397,1.766L0,1.766L0,-10.407ZM-5.612,-5.408C-6.765,-3.996 -8.109,-2.769 -9.646,-1.728L-10.946,-2.658C-8.456,-4.578 -6.895,-6.827 -6.263,-9.404L-9.905,-9.404L-9.905,-11.057L-2.732,-11.057C-3.054,-9.67 -3.655,-8.282 -4.535,-6.895C-2.924,-5.656 -1.617,-4.602 -0.613,-3.735L-2.974,-1.895C-3.618,-2.825 -4.498,-3.996 -5.612,-5.408" style="fill:rgb(35,31,32);fill-rule:nonzero;"/>
            </g>
            <g transform="matrix(1,0,0,1,182.3911,81.2516)">
                <path d="M0,-6.654L-1.264,-6.654L-1.264,-5.092C-1.264,-4.312 -1.313,-3.662 -1.413,-3.141L-3.605,-3.141L-3.605,-10.11C-3.605,-10.891 -3.705,-11.479 -3.903,-11.876L-1.264,-11.876L-1.264,-8.307L0,-8.307L0,-10.11C0,-10.903 -0.105,-11.492 -0.316,-11.876L2.341,-11.876L2.341,-4.72C2.341,-3.94 2.292,-3.29 2.193,-2.769L0,-2.769L0,-6.654ZM-0.205,1.45C-0.205,0.855 -0.434,0.347 -0.892,-0.075C-1.351,-0.496 -1.896,-0.707 -2.528,-0.707C-3.16,-0.707 -3.705,-0.496 -4.163,-0.075C-4.622,0.347 -4.851,0.855 -4.851,1.45C-4.851,2.056 -4.622,2.567 -4.163,2.983C-3.705,3.398 -3.16,3.605 -2.528,3.605C-1.896,3.605 -1.351,3.398 -0.892,2.983C-0.434,2.567 -0.205,2.056 -0.205,1.45M0.911,-1.246C1.864,-0.503 2.341,0.396 2.341,1.45C2.341,2.502 1.864,3.394 0.911,4.125C-0.044,4.856 -1.189,5.222 -2.528,5.222C-3.866,5.222 -5.012,4.856 -5.966,4.125C-6.92,3.394 -7.397,2.502 -7.397,1.45C-7.397,0.396 -6.92,-0.503 -5.966,-1.246C-5.012,-1.989 -3.866,-2.361 -2.528,-2.361C-1.189,-2.361 -0.044,-1.989 0.911,-1.246M-7.359,-7.694C-6.034,-6.765 -4.857,-5.861 -3.829,-4.981L-5.947,-3.327L-8.27,-6.189C-9.101,-5.087 -10.172,-4.064 -11.485,-3.123L-12.842,-4.033C-11.851,-4.789 -11.052,-5.672 -10.445,-6.681C-9.838,-7.691 -9.534,-8.717 -9.534,-9.758C-9.534,-10.191 -9.615,-10.649 -9.775,-11.133L-6.635,-11.133L-6.635,-10.742C-6.635,-9.739 -6.876,-8.722 -7.359,-7.694" style="fill:rgb(35,31,32);fill-rule:nonzero;"/>
            </g>
            <g transform="matrix(1,0,0,1,192.8911,80.7946)">
                <path d="M0,-6.113C0.285,-6.33 0.427,-6.599 0.427,-6.922C0.427,-7.244 0.285,-7.516 0,-7.739C-0.285,-7.963 -0.626,-8.074 -1.022,-8.074C-1.419,-8.074 -1.759,-7.963 -2.044,-7.739C-2.33,-7.516 -2.472,-7.244 -2.472,-6.922C-2.472,-6.599 -2.33,-6.33 -2.044,-6.113C-1.759,-5.896 -1.419,-5.788 -1.022,-5.788C-0.626,-5.788 -0.285,-5.896 0,-6.113M-2.788,3.207C-2.788,2.501 -2.862,1.981 -3.011,1.646L4.329,1.646L4.329,1.014L-2.881,1.014L-2.881,-0.603L6.876,-0.603L6.876,3.17L-0.26,3.17L-0.26,3.876L6.97,3.876L6.97,5.492L-2.211,5.492C-2.36,5.492 -2.494,5.437 -2.611,5.325C-2.729,5.214 -2.788,5.077 -2.788,4.917L-2.788,3.207ZM-4.367,-8.371L-5.39,-8.371L-5.39,-10.025L-2.342,-10.025L-2.342,-10.229C-2.342,-10.824 -2.422,-11.282 -2.583,-11.605L0.297,-11.605L0.297,-10.025L3.345,-10.025L3.345,-8.371L2.323,-8.371C2.72,-7.913 2.917,-7.429 2.917,-6.922C2.917,-6.339 2.669,-5.809 2.174,-5.333C1.679,-4.855 1.041,-4.524 0.26,-4.339L0.26,-3.242L1.84,-3.242C2.781,-3.242 3.642,-3.322 4.423,-3.483L4.423,-9.653C4.423,-10.434 4.323,-11.022 4.126,-11.419L6.97,-11.419L6.97,-7.479L9.198,-7.479L9.198,-5.825L6.97,-5.825L6.97,-3.149C6.97,-2.368 6.919,-1.717 6.821,-1.197L4.423,-1.197L4.423,-1.941C3.481,-1.706 2.552,-1.588 1.635,-1.588L-6.412,-1.588L-6.412,-3.242L-2.286,-3.242L-2.286,-4.339C-3.066,-4.524 -3.708,-4.855 -4.209,-5.333C-4.711,-5.809 -4.962,-6.339 -4.962,-6.922C-4.962,-7.429 -4.764,-7.913 -4.367,-8.371" style="fill:rgb(35,31,32);fill-rule:nonzero;"/>
            </g>
            <g transform="matrix(1,0,0,1,211.9028,79.4852)">
                <path d="M0,-3.493L2.397,-3.493L2.397,-4.664L0.148,-4.664L0.148,-4.441C0.148,-4.132 0.099,-3.815 0,-3.493M2.323,3.513L-2.1,3.513L-2.1,5.056L2.323,5.056L2.323,3.513ZM-2.1,1.859L2.323,1.859L2.323,1.803C2.323,1.011 2.218,0.422 2.007,0.037L4.851,0.037L4.851,6.709L-4.052,6.709C-4.2,6.709 -4.333,6.651 -4.451,6.533C-4.569,6.415 -4.628,6.282 -4.628,6.133L-4.628,1.784C-4.628,0.98 -4.733,0.398 -4.943,0.037L-2.1,0.037L-2.1,1.859ZM-2.416,-4.441C-2.416,-5.011 -2.583,-5.504 -2.918,-5.919C-3.252,-6.334 -3.649,-6.541 -4.107,-6.541C-4.591,-6.541 -4.993,-6.334 -5.315,-5.919C-5.638,-5.504 -5.799,-5.011 -5.799,-4.441C-5.799,-3.871 -5.635,-3.379 -5.306,-2.964C-4.978,-2.549 -4.578,-2.341 -4.107,-2.341C-3.649,-2.341 -3.252,-2.552 -2.918,-2.973C-2.583,-3.394 -2.416,-3.884 -2.416,-4.441M-5.427,-8.436L-5.427,-8.827C-5.427,-9.422 -5.508,-9.88 -5.668,-10.202L-2.788,-10.202L-2.788,-8.436L0.576,-8.436L0.576,-6.783L-0.799,-6.783C-0.676,-6.659 -0.552,-6.504 -0.428,-6.318L2.397,-6.318L2.397,-8.344C2.397,-9.125 2.298,-9.713 2.1,-10.109L4.943,-10.109L4.943,-2.657C4.943,-1.877 4.894,-1.226 4.795,-0.706L2.397,-0.706L2.397,-1.84L-1.078,-1.84C-1.896,-1.084 -2.905,-0.706 -4.107,-0.706C-5.271,-0.706 -6.272,-1.074 -7.108,-1.811C-7.945,-2.549 -8.363,-3.426 -8.363,-4.441C-8.363,-5.308 -8.047,-6.089 -7.415,-6.783L-8.809,-6.783L-8.809,-8.436L-5.427,-8.436Z" style="fill:rgb(35,31,32);fill-rule:nonzero;"/>
            </g>
            <g transform="matrix(1,0,0,1,228.8149,73.4096)">
                <path d="M0,9.774C0,9.303 -0.221,8.908 -0.66,8.585C-1.1,8.263 -1.624,8.102 -2.23,8.102C-2.838,8.102 -3.361,8.263 -3.801,8.585C-4.241,8.908 -4.461,9.303 -4.461,9.774C-4.461,10.257 -4.244,10.657 -3.811,10.973C-3.377,11.289 -2.851,11.447 -2.23,11.447C-1.611,11.447 -1.085,11.289 -0.65,10.973C-0.217,10.657 0,10.257 0,9.774M2.546,9.774C2.546,10.691 2.078,11.468 1.143,12.107C0.207,12.745 -0.917,13.064 -2.23,13.064C-3.544,13.064 -4.668,12.745 -5.604,12.107C-6.539,11.468 -7.007,10.691 -7.007,9.774C-7.007,8.845 -6.539,8.058 -5.604,7.415C-4.668,6.77 -3.544,6.448 -2.23,6.448C-0.917,6.448 0.207,6.77 1.143,7.415C2.078,8.058 2.546,8.845 2.546,9.774M-3.513,2.266L-6.468,2.266C-6.629,2.266 -6.769,2.208 -6.886,2.089C-7.004,1.972 -7.062,1.838 -7.062,1.69L-7.062,-1.543C-7.062,-2.336 -7.162,-2.918 -7.359,-3.29L2.602,-3.29L2.602,-1.636L-4.517,-1.636L-4.517,0.612L2.602,0.612L2.602,2.266L-0.948,2.266L-0.948,3.865L5.575,3.865L5.575,5.518L-10.036,5.518L-10.036,3.865L-3.513,3.865L-3.513,2.266Z" style="fill:rgb(35,31,32);fill-rule:nonzero;"/>
            </g>
            <g transform="matrix(1,0,0,1,245.0386,78.5189)">
                <path d="M0,-5.389C1.734,-4.646 3.289,-3.927 4.664,-3.234L2.694,-1.207C1.368,-2.186 -0.031,-3.14 -1.506,-4.07C-3.005,-2.868 -4.652,-1.87 -6.449,-1.077L-7.787,-2.193C-5.26,-3.618 -3.444,-5.135 -2.342,-6.745L-6.486,-6.745L-6.486,-8.4L2.62,-8.4C1.827,-7.309 0.953,-6.306 0,-5.389M-2.937,1.357L-2.937,-0.724C-2.937,-1.319 -3.018,-1.778 -3.178,-2.1L-0.372,-2.1L-0.372,1.357L6.151,1.357L6.151,3.011L-9.46,3.011L-9.46,1.357L-2.937,1.357Z" style="fill:rgb(35,31,32);fill-rule:nonzero;"/>
            </g>
            <g transform="matrix(1,0,0,1,263.3999,84.3366)">
                <path d="M0,-13.195C0,-13.976 -0.099,-14.564 -0.297,-14.961L2.546,-14.961L2.546,-11.392L4.776,-11.392L4.776,-9.739L2.546,-9.739L2.546,-7.62C2.546,-6.84 2.497,-6.189 2.397,-5.669L0,-5.669L0,-13.195ZM-0.074,-1.394L-4.497,-1.394L-4.497,0.205L-0.074,0.205L-0.074,-1.394ZM-4.497,-3.049L-0.074,-3.049L-0.074,-3.234C-0.074,-4.027 -0.18,-4.616 -0.39,-5L2.453,-5L2.453,1.858L-6.448,1.858C-6.598,1.858 -6.73,1.799 -6.848,1.682C-6.966,1.564 -7.024,1.431 -7.024,1.282L-7.024,-3.253C-7.024,-4.058 -7.13,-4.64 -7.341,-5L-4.497,-5L-4.497,-3.049ZM-4.441,-9.441C-4.441,-9.974 -4.608,-10.432 -4.943,-10.816C-5.277,-11.201 -5.675,-11.392 -6.133,-11.392C-6.616,-11.392 -7.019,-11.201 -7.341,-10.816C-7.663,-10.432 -7.824,-9.974 -7.824,-9.441C-7.824,-8.909 -7.66,-8.45 -7.331,-8.066C-7.003,-7.682 -6.604,-7.49 -6.133,-7.49C-5.675,-7.49 -5.277,-7.685 -4.943,-8.075C-4.608,-8.466 -4.441,-8.921 -4.441,-9.441M-7.452,-13.288L-7.452,-13.678C-7.452,-14.273 -7.533,-14.731 -7.693,-15.053L-4.813,-15.053L-4.813,-13.288L-1.449,-13.288L-1.449,-11.634L-2.769,-11.634C-2.174,-10.977 -1.877,-10.247 -1.877,-9.441C-1.877,-8.463 -2.295,-7.62 -3.131,-6.914C-3.968,-6.208 -4.968,-5.854 -6.133,-5.854C-7.297,-5.854 -8.298,-6.208 -9.134,-6.914C-9.971,-7.62 -10.389,-8.463 -10.389,-9.441C-10.389,-10.247 -10.091,-10.977 -9.496,-11.634L-10.834,-11.634L-10.834,-13.288L-7.452,-13.288Z" style="fill:rgb(35,31,32);fill-rule:nonzero;"/>
            </g>
        </g>
    </g>
</svg>
